<svg xmlns="http://www.w3.org/2000/svg" viewBox="0 0 1600 900" role="img">
<defs>
  <pattern id="grid" width="60" height="60" patternUnits="userSpaceOnUse"><path d="M60 0H0V60" fill="none" stroke="#173342" stroke-width="1" opacity=".065"/></pattern>
  <pattern id="dots" width="16" height="16" patternUnits="userSpaceOnUse"><circle cx="2" cy="2" r="1.3" fill="#173342" opacity=".12"/></pattern>
  <pattern id="hatch" width="14" height="14" patternUnits="userSpaceOnUse" patternTransform="rotate(45)"><line x1="0" y1="0" x2="0" y2="14" stroke="#b7623f" stroke-width="2" opacity=".35"/></pattern>
  <filter id="shadow" x="-30%" y="-30%" width="160%" height="160%"><feDropShadow dx="0" dy="12" stdDeviation="12" flood-color="#173342" flood-opacity=".14"/></filter>
  <linearGradient id="paper" x2="0" y2="1"><stop stop-color="#f2eee4"/><stop offset="1" stop-color="#e4e4dc"/></linearGradient>
</defs>
<rect width="1600" height="900" fill="url(#paper)"/>
<rect width="1600" height="900" fill="url(#grid)"/>
<rect x="37" y="37" width="1526" height="826" rx="5" fill="none" stroke="#173342" stroke-width="2" opacity=".35"/>
<path d="M37 108H1563 M37 792H1563" stroke="#173342" stroke-width="2" opacity=".16"/>
<circle cx="91" cy="74" r="9" fill="#b7623f"/><circle cx="124" cy="74" r="9" fill="#173342" opacity=".22"/><circle cx="157" cy="74" r="9" fill="#173342" opacity=".22"/>
<path d="M40 425H182L280 348H465" fill="none" stroke="#b7623f" stroke-width="23" stroke-linecap="round" stroke-linejoin="round" /><path d="M42 558H210L298 618H465" fill="none" stroke="#b7623f" stroke-width="12" stroke-linecap="round" stroke-linejoin="round" /><path d="M1560 425H1418L1320 348H1135" fill="none" stroke="#267c80" stroke-width="23" stroke-linecap="round" stroke-linejoin="round" /><path d="M1558 558H1390L1302 618H1135" fill="none" stroke="#267c80" stroke-width="12" stroke-linecap="round" stroke-linejoin="round" /><circle cx="170" cy="425" r="25" fill="#f3f0e7" stroke="#b7623f" stroke-width="3" /><circle cx="170" cy="425" r="18" fill="#b7623f" stroke="#b7623f" stroke-width="2" /><circle cx="170" cy="425" r="4.5" fill="#fffdf7" stroke="#fffdf7" stroke-width="0" /><circle cx="290" cy="348" r="25" fill="#f3f0e7" stroke="#b7623f" stroke-width="3" /><circle cx="290" cy="348" r="18" fill="#b7623f" stroke="#b7623f" stroke-width="2" /><circle cx="290" cy="348" r="4.5" fill="#fffdf7" stroke="#fffdf7" stroke-width="0" /><circle cx="204" cy="558" r="25" fill="#f3f0e7" stroke="#b7623f" stroke-width="3" /><circle cx="204" cy="558" r="18" fill="#b7623f" stroke="#b7623f" stroke-width="2" /><circle cx="204" cy="558" r="4.5" fill="#fffdf7" stroke="#fffdf7" stroke-width="0" /><circle cx="1420" cy="425" r="25" fill="#f3f0e7" stroke="#267c80" stroke-width="3" /><circle cx="1420" cy="425" r="18" fill="#267c80" stroke="#267c80" stroke-width="2" /><circle cx="1420" cy="425" r="4.5" fill="#fffdf7" stroke="#fffdf7" stroke-width="0" /><circle cx="1310" cy="348" r="25" fill="#f3f0e7" stroke="#267c80" stroke-width="3" /><circle cx="1310" cy="348" r="18" fill="#267c80" stroke="#267c80" stroke-width="2" /><circle cx="1310" cy="348" r="4.5" fill="#fffdf7" stroke="#fffdf7" stroke-width="0" /><circle cx="1390" cy="558" r="25" fill="#f3f0e7" stroke="#267c80" stroke-width="3" /><circle cx="1390" cy="558" r="18" fill="#267c80" stroke="#267c80" stroke-width="2" /><circle cx="1390" cy="558" r="4.5" fill="#fffdf7" stroke="#fffdf7" stroke-width="0" /><rect x="467" y="253" width="666" height="427" rx="2" fill="#fffdf7" stroke="#173342" stroke-width="6" filter="url(#shadow)"/><rect x="467" y="253" width="666" height="59" rx="0" fill="#173342" stroke="#173342" stroke-width="0" /><rect x="514" y="352" width="572" height="279" rx="2" fill="#edf4f1" stroke="#173342" stroke-width="4" /><rect x="538" y="385" width="78" height="150" rx="2" fill="#bcd1d0" stroke="#173342" stroke-width="3" /><path d="M577.0 385L577.0 535" fill="none" stroke="#173342" stroke-width="2" stroke-linecap="round" /><path d="M538 460.0L616 460.0" fill="none" stroke="#173342" stroke-width="2" stroke-linecap="round" /><rect x="642" y="385" width="78" height="150" rx="2" fill="#bcd1d0" stroke="#173342" stroke-width="3" /><path d="M681.0 385L681.0 535" fill="none" stroke="#173342" stroke-width="2" stroke-linecap="round" /><path d="M642 460.0L720 460.0" fill="none" stroke="#173342" stroke-width="2" stroke-linecap="round" /><rect x="746" y="385" width="78" height="150" rx="2" fill="#bcd1d0" stroke="#173342" stroke-width="3" /><path d="M785.0 385L785.0 535" fill="none" stroke="#173342" stroke-width="2" stroke-linecap="round" /><path d="M746 460.0L824 460.0" fill="none" stroke="#173342" stroke-width="2" stroke-linecap="round" /><rect x="850" y="385" width="78" height="150" rx="2" fill="#bcd1d0" stroke="#173342" stroke-width="3" /><path d="M889.0 385L889.0 535" fill="none" stroke="#173342" stroke-width="2" stroke-linecap="round" /><path d="M850 460.0L928 460.0" fill="none" stroke="#173342" stroke-width="2" stroke-linecap="round" /><rect x="954" y="385" width="78" height="150" rx="2" fill="#bcd1d0" stroke="#173342" stroke-width="3" /><path d="M993.0 385L993.0 535" fill="none" stroke="#173342" stroke-width="2" stroke-linecap="round" /><path d="M954 460.0L1032 460.0" fill="none" stroke="#173342" stroke-width="2" stroke-linecap="round" /><rect x="720" y="549" width="160" height="82" rx="3" fill="#d7e4e0" stroke="#173342" stroke-width="4" /><path d="M750 589H850 M800 560V619" fill="none" stroke="#267c80" stroke-width="4" stroke-linecap="round" stroke-linejoin="round" /><rect x="581" y="661" width="438" height="154" rx="12" fill="#173342" stroke="#173342" stroke-width="5" filter="url(#shadow)"/><rect x="608" y="686" width="384" height="102" rx="5" fill="#294957" stroke="#738f95" stroke-width="3" /><circle cx="670" cy="738" r="27" fill="#b7623f" stroke="#e2a071" stroke-width="4" /><circle cx="800" cy="738" r="47" fill="#fffdf7" stroke="#b7623f" stroke-width="9" /><circle cx="800" cy="738" r="18" fill="#b7623f" stroke="#b7623f" stroke-width="2" /><circle cx="930" cy="738" r="27" fill="#267c80" stroke="#9cccca" stroke-width="4" /><path d="M480 342H432 M1120 342H1168" fill="none" stroke="#173342" stroke-width="3" stroke-linecap="round" stroke-linejoin="round" />
</svg>