<svg xmlns="http://www.w3.org/2000/svg" viewBox="0 0 1600 900" role="img">
<defs>
  <pattern id="grid" width="60" height="60" patternUnits="userSpaceOnUse"><path d="M60 0H0V60" fill="none" stroke="#173342" stroke-width="1" opacity=".065"/></pattern>
  <pattern id="dots" width="16" height="16" patternUnits="userSpaceOnUse"><circle cx="2" cy="2" r="1.3" fill="#173342" opacity=".12"/></pattern>
  <pattern id="hatch" width="14" height="14" patternUnits="userSpaceOnUse" patternTransform="rotate(45)"><line x1="0" y1="0" x2="0" y2="14" stroke="#b7623f" stroke-width="2" opacity=".35"/></pattern>
  <filter id="shadow" x="-30%" y="-30%" width="160%" height="160%"><feDropShadow dx="0" dy="12" stdDeviation="12" flood-color="#173342" flood-opacity=".14"/></filter>
  <linearGradient id="paper" x2="0" y2="1"><stop stop-color="#ede9df"/><stop offset="1" stop-color="#e4e4dc"/></linearGradient>
</defs>
<rect width="1600" height="900" fill="url(#paper)"/>
<rect width="1600" height="900" fill="url(#grid)"/>
<rect x="37" y="37" width="1526" height="826" rx="5" fill="none" stroke="#173342" stroke-width="2" opacity=".35"/>
<path d="M37 108H1563 M37 792H1563" stroke="#173342" stroke-width="2" opacity=".16"/>
<circle cx="91" cy="74" r="9" fill="#b7623f"/><circle cx="124" cy="74" r="9" fill="#173342" opacity=".22"/><circle cx="157" cy="74" r="9" fill="#173342" opacity=".22"/>
<rect x="139" y="314" width="1322" height="418" rx="8" fill="#f8f5ed" stroke="#173342" stroke-width="4" filter="url(#shadow)"/><rect x="139" y="314" width="1322" height="44" rx="0" fill="#173342" stroke="#173342" stroke-width="0" /><path d="M690 360V731" fill="none" stroke="#829198" stroke-width="2" stroke-linecap="round" stroke-linejoin="round" stroke-dasharray="7 12"/><path d="M1030 360V731" fill="none" stroke="#829198" stroke-width="2" stroke-linecap="round" stroke-linejoin="round" stroke-dasharray="7 12"/><rect x="277" y="412" width="290" height="237" rx="4" fill="#e4c49f" stroke="#173342" stroke-width="6" filter="url(#shadow)"/><rect x="277" y="392" width="144" height="44" rx="4" fill="#e4c49f" stroke="#173342" stroke-width="6" /><path d="M319 474H518 M319 497H494" fill="none" stroke="#b7623f" stroke-width="6" stroke-linecap="round" stroke-linejoin="round" /><rect x="342" y="489" width="186" height="116" rx="2" fill="#fffdf7" stroke="#173342" stroke-width="3" /><path d="M364 520L506 520" fill="none" stroke="#829198" stroke-width="3" stroke-linecap="round" /><path d="M364 543L485 543" fill="none" stroke="#829198" stroke-width="3" stroke-linecap="round" /><circle cx="451" cy="546" r="72" fill="#f6d7b3" stroke="#b7623f" stroke-width="4" /><path d="M418 547L442 570L486 519" fill="none" stroke="#b7623f" stroke-width="11" stroke-linecap="round" stroke-linejoin="round" /><path d="M577 545H724" fill="none" stroke="#173342" stroke-width="5" stroke-linecap="round" stroke-linejoin="round" stroke-dasharray="8 12"/><rect x="755" y="420" width="216" height="206" rx="6" fill="#fffdf7" stroke="#173342" stroke-width="4" filter="url(#shadow)"/><path d="M777 453L949 453" fill="none" stroke="#173342" stroke-width="3" stroke-linecap="round" /><path d="M777 476L919 476" fill="none" stroke="#829198" stroke-width="3" stroke-linecap="round" /><path d="M777 498L891 498" fill="none" stroke="#829198" stroke-width="3" stroke-linecap="round" /><circle cx="862" cy="552" r="38" fill="#fffdf7" stroke="#173342" stroke-width="5" /><path d="M849 552L860 563L881 538" fill="none" stroke="#267c80" stroke-width="7" stroke-linecap="round" stroke-linejoin="round" /><path d="M977 545H1084" fill="none" stroke="#173342" stroke-width="5" stroke-linecap="round" stroke-linejoin="round" stroke-dasharray="8 12"/><rect x="1120" y="430" width="231" height="187" rx="5" fill="#e4ede8" stroke="#173342" stroke-width="4" filter="url(#shadow)"/><circle cx="1236" cy="514" r="62" fill="#fffdf7" stroke="#173342" stroke-width="5" /><path d="M1236 472V515L1267 542" fill="none" stroke="#b7623f" stroke-width="8" stroke-linecap="round" stroke-linejoin="round" /><path d="M1138 652L1337 652" fill="none" stroke="#829198" stroke-width="3" stroke-linecap="round" />
</svg>