<svg xmlns="http://www.w3.org/2000/svg" viewBox="0 0 1600 900" role="img">
<defs>
  <pattern id="grid" width="60" height="60" patternUnits="userSpaceOnUse"><path d="M60 0H0V60" fill="none" stroke="#173342" stroke-width="1" opacity=".065"/></pattern>
  <pattern id="dots" width="16" height="16" patternUnits="userSpaceOnUse"><circle cx="2" cy="2" r="1.3" fill="#173342" opacity=".12"/></pattern>
  <pattern id="hatch" width="14" height="14" patternUnits="userSpaceOnUse" patternTransform="rotate(45)"><line x1="0" y1="0" x2="0" y2="14" stroke="#b7623f" stroke-width="2" opacity=".35"/></pattern>
  <filter id="shadow" x="-30%" y="-30%" width="160%" height="160%"><feDropShadow dx="0" dy="12" stdDeviation="12" flood-color="#173342" flood-opacity=".14"/></filter>
  <linearGradient id="paper" x2="0" y2="1"><stop stop-color="#eae5e1"/><stop offset="1" stop-color="#e4e4dc"/></linearGradient>
</defs>
<rect width="1600" height="900" fill="url(#paper)"/>
<rect width="1600" height="900" fill="url(#grid)"/>
<rect x="37" y="37" width="1526" height="826" rx="5" fill="none" stroke="#173342" stroke-width="2" opacity=".35"/>
<path d="M37 108H1563 M37 792H1563" stroke="#173342" stroke-width="2" opacity=".16"/>
<circle cx="91" cy="74" r="9" fill="#b7623f"/><circle cx="124" cy="74" r="9" fill="#173342" opacity=".22"/><circle cx="157" cy="74" r="9" fill="#173342" opacity=".22"/>
<rect x="91" y="302" width="1418" height="473" rx="6" fill="#f6f2e9" stroke="#173342" stroke-width="4" filter="url(#shadow)"/><rect x="91" y="302" width="1418" height="47" rx="0" fill="#173342" stroke="#173342" stroke-width="0" /><path d="M1045 350V774" fill="none" stroke="#b7623f" stroke-width="5" stroke-linecap="round" stroke-linejoin="round" stroke-dasharray="12 11"/><rect x="120" y="418" width="325" height="255" rx="6" fill="#dbe2df" stroke="#173342" stroke-width="4" /><rect x="159" y="455" width="244" height="172" rx="3" fill="#fffdf7" stroke="#173342" stroke-width="4" /><path d="M177 482H383 M177 515H339 M177 549H360" fill="none" stroke="#829198" stroke-width="5" stroke-linecap="round" stroke-linejoin="round" /><path d="M448 544H642" fill="none" stroke="#b7623f" stroke-width="9" stroke-linecap="round" stroke-linejoin="round" stroke-dasharray="12 11"/><rect x="688" y="423" width="280" height="294" rx="4" fill="#fffdf7" stroke="#b7623f" stroke-width="6" filter="url(#shadow)"/><path d="M714 465H939 M714 505H903 M714 542H921" fill="none" stroke="#173342" stroke-width="5" stroke-linecap="round" stroke-linejoin="round" /><rect x="714" y="583" width="226" height="100" rx="2" fill="url(#hatch)" stroke="#b7623f" stroke-width="3" /><circle cx="829" cy="575" r="52" fill="#fffdf7" stroke="#b7623f" stroke-width="7" /><path d="M829 550V584 M829 601V605" fill="none" stroke="#b7623f" stroke-width="11" stroke-linecap="round" stroke-linejoin="round" /><path d="M979 544H1084" fill="none" stroke="#b7623f" stroke-width="9" stroke-linecap="round" stroke-linejoin="round" stroke-dasharray="11 13"/><rect x="1122" y="434" width="266" height="244" rx="9" fill="#d6ebe4" stroke="#173342" stroke-width="5" /><circle cx="1255" cy="506" r="57" fill="#fffdf7" stroke="#267c80" stroke-width="5" /><path d="M1230 507H1280 M1255 482V531" fill="none" stroke="#267c80" stroke-width="7" stroke-linecap="round" stroke-linejoin="round" /><rect x="1171" y="593" width="168" height="45" rx="6" fill="#173342" stroke="#173342" stroke-width="2" /><path d="M1073 405H1445" fill="none" stroke="#267c80" stroke-width="3" stroke-linecap="round" stroke-linejoin="round" />
</svg>